<svg xmlns="http://www.w3.org/2000/svg" width="165.4" height="165.4"><path d="M55 0L0 31.8v72.8c0 33.5 26.9 60.8 60.4 60.8 11.2 0 21.5-2.9 30.6-7.9l44.6-25.6c17.8-9.5 29.8-27.7 29.8-49.2V6.6L154.7.4l-47.1 25.2V105c0 3.3-.4 6.6-.8 9.9-.8 3.3-1.7 6.2-2.9 9.1l-1.2 2.5c-1.7 0-12-3.7-17.4-7.4-2.5-1.7-4.5-3.3-6.6-5.4-2.1-2.1-3.7-4.1-5.4-6.6s-2.9-5-4.1-7.4c-1.2-2.5-2.1-5.4-2.5-8.3-.4-2.9-.4-5.8-.4-8.7V6.6L55 0zm26.9 149.7c-2.9 1.2-7 2.9-10.3 3.7-3.3.8-6.2.8-9.5.8s-6.6-.4-9.9-1.2c-3.3-.8-6.2-1.7-9.1-2.9-2.9-1.2-5.8-2.9-8.3-4.5-7.4-4.5-11.2-8.7-14.1-13.2-1.7-2.5-3.3-5.4-4.5-8.3-1.2-2.9-2.1-6.2-2.9-9.5-.8-3.3-.8-6.6-.8-9.9V38l41.3-25.2v69.9c0 26.5 19.4 48.8 44.2 54.2-.8 1.2-1.7 2.5-2.9 3.3-4.6 4.5-8.3 7.4-13.2 9.5zm70.2-57.9c-.4 2.9-1.7 5.8-2.5 8.3-1.2 2.5-2.5 5-4.1 7.4-1.7 2.5-6.6 8.7-13.2 12.4-6.6 3.7-12.8 5-16.5 5.8 2.5-6.6 4.1-13.2 4.1-20.7V31.8l33.1-19v69.9c0 3.3 0 6.2-.9 9.1z" fill="#fff"/></svg>